<?xml version="1.0" encoding="utf-8"?>
<!-- Generator: Adobe Illustrator 16.0.0, SVG Export Plug-In . SVG Version: 6.00 Build 0)  -->
<!DOCTYPE svg PUBLIC "-//W3C//DTD SVG 1.1//EN" "http://www.w3.org/Graphics/SVG/1.1/DTD/svg11.dtd">
<svg version="1.1" id="图层_1" xmlns="http://www.w3.org/2000/svg" xmlns:xlink="http://www.w3.org/1999/xlink" x="0px" y="0px"
	 width="800px" height="500px" viewBox="0 0 800 500" enable-background="new 0 0 800 500" xml:space="preserve">
<g>
	<circle fill="#535D6A" cx="20" cy="20.895" r="16"/>
	<path fill="#353535" d="M4.177,23.205c0,0.355,0.178,0.711,0.178,1.067c0,0.178,0.178,0.355,0.178,0.711s0.178,0.711,0.356,0.889
		c0,0.178,0.177,0.355,0.177,0.711c0.178,0.355,0.178,0.711,0.356,0.89c0.177,0.177,0.177,0.354,0.356,0.71
		c0,0.178,0.177,0.534,0.355,0.712c0.178,0.178,0.178,0.355,0.355,0.533c0.178,0.354,0.355,0.71,0.533,0.89
		c0.178,0.178,0.356,0.354,0.356,0.533c0.178,0.177,0.355,0.532,0.533,0.711l0.534,0.533c0.355,0.178,0.533,0.355,0.71,0.711
		l0.356,0.355c0.711-2.666,3.022-4.801,6.044-6.044l2.489,7.644h0.533l0.711-4.266h1.423l0.711,4.266h0.533l2.489-7.644
		c3.021,1.065,5.333,3.378,6.044,5.866l0.355-0.356c0.178-0.177,0.533-0.354,0.711-0.71l0.533-0.534
		c0.178-0.178,0.355-0.532,0.533-0.711c0.179-0.177,0.356-0.354,0.356-0.534c0.178-0.176,0.354-0.531,0.533-0.71
		c0.177,0,0.177-0.178,0.354-0.533c0.18-0.178,0.355-0.534,0.355-0.89c0.18-0.178,0.18-0.355,0.355-0.711
		c0.179-0.355,0.179-0.532,0.356-0.889c0-0.178,0.178-0.355,0.178-0.711c0.177,0,0.355-0.355,0.355-0.711
		c0-0.178,0.179-0.355,0.179-0.711s0.178-0.712,0.178-1.067v-0.534c0-0.532,0.178-1.065,0.178-1.776c0-8.889-7.111-16-16-16
		c-8.889,0-16,7.111-16,16c0,0.533,0,1.066,0.177,1.776v0.534H4.177z M21.422,29.428l-0.534,0.89c0,0.178-0.177,0.178-0.355,0.178
		h-1.067c-0.178,0-0.355,0-0.355-0.178l-0.533-0.89c-0.178-0.178,0-0.354,0-0.533h2.667C21.422,29.072,21.6,29.25,21.422,29.428
		L21.422,29.428z M19.466,13.25c3.022,0,5.511,2.844,5.511,6.223c0,3.378-2.488,7.11-5.511,7.11c-3.023,0-5.511-3.732-5.511-7.11
		C13.956,15.917,16.444,13.25,19.466,13.25L19.466,13.25z"/>
</g>
<g>
	<g>
		<path fill="#687689" d="M16.259,54.559c0.366,0,0.629,0.293,0.63,0.293l0,0l0.036,0.045l0.041,0.041l4.899,4.9l0.019,0.02
			l0.021,0.018c0.098,0.088,0.234,0.241,0.314,0.354h-0.692h-1v1v4.933c0,0.006,0,0.012,0,0.018l0,0H18.36
			c-0.011,0-0.024-0.001-0.036-0.003l0,0v-2.17c0-0.415,0-1.677-1.661-1.677h-0.727c-1.548,0-1.715,1.182-1.715,1.69v2.137
			c0,0.008,0,0.015,0,0.022h-2.124c-0.022,0-0.05,0-0.08,0v-4.95v-1h-1h-0.708c0.081-0.108,0.209-0.251,0.322-0.353l0.021-0.019
			l0.02-0.02l4.906-4.9l0.049-0.053l0.03-0.036C15.667,54.837,15.901,54.559,16.259,54.559 M16.259,53.559
			c-0.882,0-1.388,0.672-1.388,0.672l-4.906,4.9c0,0-0.706,0.63-0.706,1.062c0,0.92,0.706,1.037,0.706,1.037h1.052
			c0,0,0,3.962,0,4.956s0.72,0.994,1.08,0.994h2.144c0.326,0,0.98,0,0.98-1.022c0-0.616,0-1.446,0-2.137s0.379-0.69,0.715-0.69
			c0.436,0,0.134,0,0.727,0c0.593,0,0.661,0.133,0.661,0.677c0,0.545,0,1.643,0,2.17c0,0.842,0.69,1.003,1.036,1.003h2.167
			c0.333,0,1,0,1-1.018c0-1.017,0-4.933,0-4.933h1.051c0,0,0.698-0.095,0.681-1.037c-0.009-0.455-0.687-1.062-0.687-1.062
			l-4.899-4.9C17.673,54.231,17.141,53.559,16.259,53.559L16.259,53.559z"/>
	</g>
</g>
<g>
	<path fill="#687689" d="M93.999,53.559h-11.65c-0.654,0-1.184,0.494-1.184,1.146v11.65c0,0.653,0.529,1.204,1.184,1.204h11.648
		c0.654,0,1.168-0.551,1.168-1.203v-11.65C95.165,54.053,94.651,53.559,93.999,53.559L93.999,53.559L93.999,53.559 M82.124,54.705
		c0-0.115,0.102-0.208,0.217-0.208h11.652c0.115,0,0.211,0.093,0.211,0.208v11.65c0,0.115-0.09,0.243-0.205,0.243h-11.65
		c-0.115,0-0.225-0.128-0.225-0.243V54.705L82.124,54.705L82.124,54.705 M85.712,58.488c0.643,0,1.207-0.369,1.412-1.009h5.48v-0.96
		h-5.48c-0.207-0.56-0.77-1.009-1.412-1.009s-1.207,0.449-1.414,1.009h-0.572v0.96h0.572C84.505,58.119,85.069,58.488,85.712,58.488
		L85.712,58.488L85.712,58.488 M85.712,56.461c0.287,0,0.52,0.233,0.52,0.521s-0.232,0.521-0.52,0.521
		c-0.289,0-0.521-0.234-0.521-0.521C85.19,56.695,85.423,56.461,85.712,56.461L85.712,56.461L85.712,56.461 M89.995,61.928
		c0.643,0,1.207-0.449,1.414-1.009h1.195v-0.96h-1.195c-0.207-0.64-0.771-1.009-1.414-1.009s-1.207,0.369-1.412,1.009h-4.857v0.96
		h4.857C88.788,61.479,89.353,61.928,89.995,61.928L89.995,61.928L89.995,61.928 M89.995,60.889c-0.281,0-0.516-0.23-0.521-0.511
		c0-0.003,0-0.007,0-0.011v-0.008c0.006-0.283,0.238-0.513,0.521-0.513c0.287,0,0.521,0.234,0.521,0.521
		C90.517,60.654,90.282,60.889,89.995,60.889L89.995,60.889L89.995,60.889 M85.179,65.591c0.643,0,1.207-0.353,1.414-0.993h6.012
		v-0.959h-6.012c-0.207-0.641-0.771-1.033-1.414-1.033c-0.824,0-1.496,0.667-1.496,1.493C83.685,64.924,84.354,65.591,85.179,65.591
		L85.179,65.591L85.179,65.591 M85.179,63.558c0.287,0,0.521,0.234,0.521,0.521S85.466,64.6,85.179,64.6
		c-0.287,0-0.52-0.234-0.52-0.521S84.892,63.558,85.179,63.558L85.179,63.558L85.179,63.558"/>
</g>
<g>
	<g>
		<path fill="#687689" d="M55.839,61.337v5.783h-3.968v-5.783H55.839 M56.883,60.293h-6.055v7.87h6.055V60.293L56.883,60.293z"/>
	</g>
	<g>
		<path fill="#687689" d="M55.839,54.602v2.756h-3.968v-2.756H55.839 M56.883,53.559h-6.055v4.843h6.055V53.559L56.883,53.559z"/>
	</g>
	<g>
		<path fill="#687689" d="M47.894,54.602v5.783h-3.968v-5.783H47.894 M48.938,53.559h-6.055v7.87h6.055V53.559L48.938,53.559z"/>
	</g>
	<g>
		<path fill="#687689" d="M47.894,64.364v2.756h-3.968v-2.756H47.894 M48.938,63.32h-6.055v4.843h6.055V63.32L48.938,63.32z"/>
	</g>
</g>
<g>
	<g>
		<path fill="#FFFFFF" d="M16.259,82.979c0.366,0,0.629,0.293,0.63,0.293l0,0l0.036,0.045l0.041,0.041l4.899,4.9l0.02,0.02
			l0.018,0.016c0.114,0.104,0.241,0.249,0.316,0.356h-0.692h-1v1v4.933c0,0.006,0,0.012,0,0.018l0,0H18.36
			c-0.011,0-0.024-0.001-0.036-0.003l0,0v-2.17c0-0.415,0-1.677-1.661-1.677h-0.727c-1.548,0-1.715,1.182-1.715,1.69v2.137
			c0,0.008,0,0.015,0,0.022h-2.124c-0.022,0-0.05,0-0.08,0v-4.95v-1h-1h-0.708c0.081-0.108,0.209-0.25,0.322-0.353l0.021-0.019
			l0.02-0.02l4.906-4.9l0.05-0.05l0.042-0.056C15.672,83.25,15.91,82.979,16.259,82.979 M16.259,81.979
			c-0.882,0-1.388,0.672-1.388,0.672l-4.906,4.9c0,0-0.706,0.63-0.706,1.062c0,0.92,0.706,1.037,0.706,1.037h1.052
			c0,0,0,3.962,0,4.956s0.72,0.994,1.08,0.994h2.144c0.326,0,0.98,0,0.98-1.022c0-0.616,0-1.446,0-2.137s0.379-0.69,0.715-0.69
			c0.436,0,0.134,0,0.727,0c0.593,0,0.661,0.133,0.661,0.677c0,0.545,0,1.643,0,2.17c0,0.842,0.69,1.003,1.036,1.003h2.167
			c0.333,0,1,0,1-1.018c0-1.017,0-4.933,0-4.933h1.051c0,0,0.698-0.095,0.681-1.037c-0.009-0.455-0.687-1.062-0.687-1.062
			l-4.899-4.9C17.673,82.651,17.141,81.979,16.259,81.979L16.259,81.979z"/>
	</g>
</g>
<g>
	<path fill="#FFFFFF" d="M94,81.981H82.35c-0.654,0-1.184,0.494-1.184,1.146v11.65c0,0.653,0.529,1.204,1.184,1.204h11.648
		c0.654,0,1.168-0.551,1.168-1.203v-11.65C95.166,82.475,94.652,81.981,94,81.981L94,81.981L94,81.981 M82.125,83.127
		c0-0.115,0.102-0.208,0.217-0.208h11.652c0.115,0,0.211,0.093,0.211,0.208v11.65c0,0.115-0.09,0.243-0.205,0.243H82.35
		c-0.115,0-0.225-0.128-0.225-0.243V83.127L82.125,83.127L82.125,83.127 M85.713,86.91c0.643,0,1.207-0.369,1.412-1.009h5.48v-0.96
		h-5.48c-0.207-0.56-0.77-1.009-1.412-1.009s-1.207,0.449-1.414,1.009h-0.572v0.96h0.572C84.506,86.541,85.07,86.91,85.713,86.91
		L85.713,86.91L85.713,86.91 M85.713,84.883c0.287,0,0.52,0.233,0.52,0.521c0,0.288-0.232,0.521-0.52,0.521
		c-0.289,0-0.521-0.234-0.521-0.521C85.191,85.117,85.424,84.883,85.713,84.883L85.713,84.883L85.713,84.883 M89.996,90.35
		c0.643,0,1.207-0.449,1.414-1.009h1.195v-0.96H91.41c-0.207-0.64-0.771-1.009-1.414-1.009s-1.207,0.369-1.412,1.009h-4.857v0.96
		h4.857C88.789,89.901,89.354,90.35,89.996,90.35L89.996,90.35L89.996,90.35 M89.996,89.311c-0.281,0-0.516-0.23-0.521-0.511
		c0-0.003,0-0.007,0-0.011V88.78c0.006-0.283,0.238-0.513,0.521-0.513c0.287,0,0.521,0.234,0.521,0.521
		C90.518,89.076,90.283,89.311,89.996,89.311L89.996,89.311L89.996,89.311 M85.18,94.013c0.643,0,1.207-0.353,1.414-0.993h6.012
		v-0.959h-6.012c-0.207-0.641-0.771-1.033-1.414-1.033c-0.824,0-1.496,0.667-1.496,1.493C83.686,93.346,84.355,94.013,85.18,94.013
		L85.18,94.013L85.18,94.013 M85.18,91.979c0.287,0,0.521,0.234,0.521,0.521s-0.234,0.521-0.521,0.521
		c-0.287,0-0.52-0.234-0.52-0.521S84.893,91.979,85.18,91.979L85.18,91.979L85.18,91.979"/>
</g>
<g>
	<g>
		<path fill="#FFFFFF" d="M55.839,89.76v5.783h-3.968V89.76H55.839 M56.883,88.716h-6.055v7.87h6.055V88.716L56.883,88.716z"/>
	</g>
	<g>
		<path fill="#FFFFFF" d="M55.839,83.024v2.757h-3.968v-2.757H55.839 M56.883,81.981h-6.055v4.844h6.055V81.981L56.883,81.981z"/>
	</g>
	<g>
		<path fill="#FFFFFF" d="M47.894,83.024v5.783h-3.968v-5.783H47.894 M48.938,81.981h-6.055v7.87h6.055V81.981L48.938,81.981z"/>
	</g>
	<g>
		<path fill="#FFFFFF" d="M47.894,92.786v2.757h-3.968v-2.757H47.894 M48.938,91.743h-6.055v4.844h6.055V91.743L48.938,91.743z"/>
	</g>
</g>
<path fill="#FFFFFF" d="M56.661,21.665L56.661,21.665c0,0.146-0.07,0.277-0.182,0.369l-4.83,3.983
	c-0.104,0.086-0.244,0.139-0.399,0.139c-0.321,0-0.582-0.229-0.582-0.507c0-0.146,0.069-0.275,0.183-0.367l4.384-3.617l-4.384-3.618
	c-0.113-0.093-0.182-0.223-0.182-0.368c0-0.137,0.06-0.26,0.158-0.352c0.221-0.202,0.59-0.211,0.822-0.018l4.83,3.985
	C56.59,21.388,56.661,21.52,56.661,21.665L56.661,21.665L56.661,21.665z"/>
<path fill="#FFFFFF" d="M72.494,25.831L72.494,25.831c-0.146,0-0.277-0.07-0.369-0.182l-3.982-4.83
	c-0.088-0.104-0.141-0.244-0.141-0.399c0-0.321,0.229-0.582,0.508-0.582c0.146,0,0.275,0.069,0.367,0.183l3.617,4.384l3.617-4.384
	c0.094-0.113,0.223-0.182,0.367-0.182c0.137,0,0.26,0.06,0.352,0.158c0.203,0.221,0.211,0.59,0.018,0.822l-3.984,4.83
	C72.77,25.761,72.639,25.831,72.494,25.831L72.494,25.831L72.494,25.831z"/>
<g>
	<path fill="#CCCCCC" d="M110.229,20.5l-4.906-5.409c-0.503-0.504-0.377-1.259,0.126-1.762c0.503-0.503,1.259-0.377,1.761,0.126
		l4.781,5.284l4.781-5.284c0.504-0.503,1.258-0.503,1.762-0.126c0.504,0.377,0.504,1.258,0.125,1.762L113.5,20.5l4.908,5.41
		c0.502,0.503,0.377,1.258-0.127,1.762c-0.502,0.503-1.258,0.377-1.762-0.126l-4.654-5.158l-4.781,5.284
		c-0.504,0.503-1.258,0.503-1.762,0.126c-0.503-0.504-0.503-1.259-0.125-1.762L110.229,20.5L110.229,20.5z"/>
</g>
<g>
	<path fill="#515151" d="M143.626,12.5c-3.866,0-7,3.134-7,7s3.134,7,7,7s7-3.134,7-7S147.492,12.5,143.626,12.5L143.626,12.5z
		 M143.626,25.597c-3.367,0-6.097-2.729-6.097-6.097s2.729-6.097,6.097-6.097s6.097,2.729,6.097,6.097
		S146.993,25.597,143.626,25.597L143.626,25.597z M146.434,17.16l-4.151,4.151l-1.916-1.916c-0.176-0.177-0.462-0.177-0.639,0
		c-0.176,0.176-0.176,0.462,0,0.639l2.235,2.235c0.177,0.176,0.462,0.176,0.639,0l4.471-4.471c0.177-0.177,0.177-0.463,0-0.639
		C146.896,16.983,146.61,16.983,146.434,17.16L146.434,17.16z"/>
</g>
<g>
	<g>
		<path fill="#FF6923" d="M165.799,26.5c-3.859,0-7-3.14-7-7s3.141-7,7-7c3.86,0,7,3.14,7,7S169.659,26.5,165.799,26.5L165.799,26.5
			z M165.799,13.505c-3.307,0-5.996,2.689-5.996,5.995s2.689,5.995,5.996,5.995c3.306,0,5.995-2.689,5.995-5.995
			S169.104,13.505,165.799,13.505L165.799,13.505z M166.5,19.5l2.224-2.224c0.179-0.18,0.179-0.473,0-0.652l-0.049-0.049
			c-0.18-0.179-0.473-0.179-0.652,0l-2.224,2.224l-2.224-2.224c-0.179-0.179-0.474-0.179-0.652,0l-0.048,0.049
			c-0.18,0.18-0.18,0.473,0,0.652l2.223,2.224l-2.223,2.224c-0.18,0.18-0.18,0.473,0,0.652l0.048,0.049
			c0.179,0.179,0.474,0.179,0.652,0l2.224-2.224l2.224,2.224c0.18,0.179,0.473,0.179,0.652,0l0.049-0.049
			c0.179-0.18,0.179-0.473,0-0.652L166.5,19.5z"/>
	</g>
</g>
<polygon fill="#29C6D4" points="196.5,17.5 191.5,17.5 191.5,12.5 189.5,12.5 189.5,17.5 184.5,17.5 184.5,19.5 189.5,19.5 
	189.5,24.5 191.5,24.5 191.5,19.5 196.5,19.5 "/>
<polygon fill="#FFFFFF" points="196.5,45.5 191.5,45.5 191.5,40.5 189.5,40.5 189.5,45.5 184.5,45.5 184.5,47.5 189.5,47.5 
	189.5,52.5 191.5,52.5 191.5,47.5 196.5,47.5 "/>
<path fill="#29C6D4" d="M225.5,18.5L225.5,18.5c0,0.146-0.07,0.277-0.182,0.369l-4.83,3.982c-0.104,0.088-0.244,0.141-0.399,0.141
	c-0.321,0-0.582-0.229-0.582-0.508c0-0.146,0.069-0.275,0.183-0.367l4.384-3.617l-4.384-3.617c-0.113-0.094-0.182-0.223-0.182-0.367
	c0-0.137,0.06-0.26,0.158-0.352c0.221-0.203,0.59-0.211,0.822-0.018l4.83,3.984C225.43,18.225,225.5,18.355,225.5,18.5L225.5,18.5
	L225.5,18.5z"/>
<path fill="#29C6D4" d="M242.5,18.5L242.5,18.5c0-0.146,0.07-0.277,0.182-0.369l4.83-3.982c0.104-0.088,0.244-0.141,0.398-0.141
	c0.322,0,0.582,0.229,0.582,0.508c0,0.146-0.068,0.275-0.182,0.367l-4.385,3.617l4.385,3.617c0.113,0.094,0.182,0.223,0.182,0.367
	c0,0.137-0.061,0.26-0.158,0.352c-0.221,0.203-0.59,0.211-0.822,0.018l-4.83-3.984C242.57,18.775,242.5,18.645,242.5,18.5
	L242.5,18.5L242.5,18.5z"/>
<path fill="#323232" d="M143.5,43.5L143.5,43.5c-0.146,0-0.277-0.07-0.369-0.182l-3.982-4.83c-0.088-0.104-0.141-0.244-0.141-0.399
	c0-0.321,0.229-0.582,0.508-0.582c0.146,0,0.275,0.069,0.367,0.183l3.617,4.384l3.617-4.384c0.094-0.113,0.223-0.182,0.367-0.182
	c0.137,0,0.26,0.06,0.352,0.158c0.203,0.221,0.211,0.59,0.018,0.822l-3.984,4.83C143.775,43.43,143.645,43.5,143.5,43.5L143.5,43.5
	L143.5,43.5z"/>
<polygon fill="#797979" points="271.982,13.201 272.592,21.201 264.592,20.592 "/>
<polygon fill="#797979" points="289.527,11.974 295.613,17.201 289.527,22.427 "/>
<g>
	<g>
		<path fill="#606060" d="M52.566,128.008v3.333H55.9l9.829-9.83l-3.333-3.333L52.566,128.008z M68.307,118.934
			c0.166-0.166,0.26-0.392,0.26-0.626s-0.094-0.46-0.26-0.627l-2.079-2.08c-0.167-0.167-0.392-0.26-0.627-0.26
			s-0.46,0.093-0.626,0.26l-1.627,1.626l3.333,3.333L68.307,118.934z"/>
	</g>
</g>
<g>
	<path fill="#606060" d="M102.963,118.497c0,0.204-0.159,0.364-0.364,0.364h-1.09v10.772c0,1.25-0.818,2.318-1.818,2.318h-9.455
		c-1,0-1.817-1.022-1.817-2.272v-10.818h-1.092c-0.205,0-0.363-0.16-0.363-0.364v-0.728c0-0.204,0.158-0.364,0.363-0.364h3.512
		l0.795-1.897c0.228-0.557,0.91-1.011,1.512-1.011h3.637c0.603,0,1.284,0.454,1.511,1.011l0.796,1.897h3.511
		c0.205,0,0.364,0.16,0.364,0.364v0.728H102.963L102.963,118.497z M100.054,118.861H89.871v10.772c0,0.546,0.309,0.864,0.364,0.864
		h9.455c0.057,0,0.363-0.318,0.363-0.864L100.054,118.861L100.054,118.861z M92.781,127.951c0,0.204-0.16,0.364-0.363,0.364H91.69
		c-0.205,0-0.364-0.16-0.364-0.364v-6.546c0-0.204,0.159-0.364,0.364-0.364h0.728c0.203,0,0.363,0.16,0.363,0.364V127.951
		L92.781,127.951z M97.509,117.405l-0.546-1.329c-0.034-0.046-0.136-0.114-0.193-0.125h-3.602c-0.068,0.011-0.16,0.079-0.193,0.125
		l-0.557,1.329H97.509L97.509,117.405z M95.69,127.951c0,0.204-0.159,0.364-0.363,0.364H94.6c-0.205,0-0.364-0.16-0.364-0.364
		v-6.546c0-0.204,0.159-0.364,0.364-0.364h0.728c0.204,0,0.363,0.16,0.363,0.364L95.69,127.951L95.69,127.951z M98.599,127.951
		c0,0.204-0.158,0.364-0.363,0.364h-0.727c-0.205,0-0.364-0.16-0.364-0.364v-6.546c0-0.204,0.159-0.364,0.364-0.364h0.727
		c0.205,0,0.363,0.16,0.363,0.364V127.951L98.599,127.951z"/>
</g>
<rect x="183.801" y="110.166" fill="none" width="30" height="26.351"/>
<g>
	<path fill="#606060" d="M204.488,125.861c0,0.329-0.219,0.548-0.658,0.548h-10.082v-1.973l-2.959,2.959l2.959,2.959v-1.973h11.397
		c0.657,0,1.206-0.548,1.206-1.205v-5.479l-1.863,1.863V125.861L204.488,125.861z"/>
	<path fill="#606060" d="M193.091,120.82c0-0.438,0.22-0.657,0.657-0.657h10.082v2.082l2.959-2.959l-2.959-2.959v1.973h-11.396
		c-0.658,0-1.205,0.548-1.205,1.205v5.479l1.862-1.863V120.82z"/>
</g>
<g>
	<g>
		<path fill="#29C6D4" d="M52.566,169.125v3.334H55.9l9.829-9.83l-3.333-3.333L52.566,169.125z M68.307,160.051
			c0.166-0.166,0.26-0.391,0.26-0.626c0-0.235-0.094-0.46-0.26-0.627l-2.079-2.079c-0.167-0.167-0.392-0.26-0.627-0.26
			s-0.46,0.093-0.626,0.26l-1.627,1.626l3.333,3.333L68.307,160.051z"/>
	</g>
</g>
<g>
	<path fill="#29C6D4" d="M102.963,159.731c0,0.204-0.159,0.364-0.364,0.364h-1.09v10.771c0,1.25-0.818,2.318-1.818,2.318h-9.455
		c-1,0-1.817-1.022-1.817-2.272v-10.817h-1.092c-0.205,0-0.363-0.16-0.363-0.364v-0.728c0-0.205,0.158-0.364,0.363-0.364h3.512
		l0.795-1.897c0.228-0.557,0.91-1.011,1.512-1.011h3.637c0.603,0,1.284,0.454,1.511,1.011l0.796,1.897h3.511
		c0.205,0,0.364,0.159,0.364,0.364v0.728H102.963L102.963,159.731z M100.054,160.096H89.871v10.771c0,0.546,0.309,0.864,0.364,0.864
		h9.455c0.057,0,0.363-0.318,0.363-0.864L100.054,160.096L100.054,160.096z M92.781,169.186c0,0.204-0.16,0.363-0.363,0.363H91.69
		c-0.205,0-0.364-0.159-0.364-0.363v-6.546c0-0.204,0.159-0.364,0.364-0.364h0.728c0.203,0,0.363,0.16,0.363,0.364V169.186
		L92.781,169.186z M97.509,158.64l-0.546-1.329c-0.034-0.046-0.136-0.113-0.193-0.125h-3.602c-0.068,0.012-0.16,0.079-0.193,0.125
		l-0.557,1.329H97.509L97.509,158.64z M95.69,169.186c0,0.204-0.159,0.363-0.363,0.363H94.6c-0.205,0-0.364-0.159-0.364-0.363
		v-6.546c0-0.204,0.159-0.364,0.364-0.364h0.728c0.204,0,0.363,0.16,0.363,0.364L95.69,169.186L95.69,169.186z M98.599,169.186
		c0,0.204-0.158,0.363-0.363,0.363h-0.727c-0.205,0-0.364-0.159-0.364-0.363v-6.546c0-0.204,0.159-0.364,0.364-0.364h0.727
		c0.205,0,0.363,0.16,0.363,0.364V169.186L98.599,169.186z"/>
</g>
<rect x="183.801" y="150.324" fill="none" width="30" height="26.352"/>
<g>
	<path fill="#29C6D4" d="M204.488,166.021c0,0.329-0.219,0.548-0.658,0.548h-10.082v-1.973l-2.959,2.959l2.959,2.959v-1.973h11.397
		c0.657,0,1.206-0.548,1.206-1.205v-5.479l-1.863,1.863V166.021L204.488,166.021z"/>
	<path fill="#29C6D4" d="M193.091,160.979c0-0.438,0.22-0.657,0.657-0.657h10.082v2.082l2.959-2.959l-2.959-2.959v1.973h-11.396
		c-0.658,0-1.205,0.548-1.205,1.205v5.479l1.862-1.863V160.979z"/>
</g>
<g>
	<path fill="#29C5D3" d="M480,165c0,5.246-4.478,9.5-10,9.5h-37c-5.523,0-10-4.254-10-9.5l0,0c0-5.246,4.477-9.5,10-9.5h37
		C475.522,155.5,480,159.754,480,165L480,165z"/>
	<circle fill="#FFFFFF" cx="470" cy="164.5" r="8"/>
	<g>
		<path fill="#FFFFFF" d="M437.898,159.021l0.832-0.422c0.305,0.48,0.596,0.973,0.869,1.477h4.217v3.914h-0.914v-0.434h-7.809v0.035
			c0,3.148-0.547,5.402-1.641,6.762c-0.211-0.25-0.438-0.504-0.68-0.762c0.922-1.164,1.383-3.164,1.383-6v-3.516h4.371
			C438.34,159.729,438.129,159.377,437.898,159.021z M435.098,160.896v1.84h7.809v-1.84H435.098z M443.688,165.291v5.004h-0.914
			v-0.762h-5.918v0.762h-0.914v-5.004H443.688z M442.773,166.111h-5.918v2.613h5.918V166.111z"/>
		<path fill="#FFFFFF" d="M450.473,170.084v-3.727h-3.406c-0.137,1.625-0.605,2.973-1.422,4.043
			c-0.199-0.258-0.434-0.527-0.688-0.809c0.508-0.719,0.852-1.516,1.031-2.391c0.172-0.844,0.258-2.039,0.258-3.586v-4.184h9.551
			v9.316c0,0.93-0.44,1.395-1.324,1.395c-0.539,0-1.145-0.012-1.813-0.035c-0.039-0.258-0.102-0.582-0.179-0.973
			c0.683,0.047,1.229,0.07,1.651,0.07c0.484,0,0.729-0.23,0.729-0.691v-2.156h-3.445v3.727L450.473,170.084L450.473,170.084z
			 M447.127,165.514h3.346v-2.191h-3.293C447.203,164.08,447.186,164.811,447.127,165.514z M447.18,160.299v2.18h3.293v-2.18H447.18
			z M454.855,160.299h-3.445v2.18h3.445V160.299z M451.41,165.514h3.445v-2.191h-3.445V165.514z"/>
	</g>
</g>
<g>
	<path fill="#999999" d="M480,124c0,5.247-4.478,9.5-10,9.5h-37c-5.523,0-10-4.253-10-9.5l0,0c0-5.247,4.477-9.5,10-9.5h37
		C475.522,114.5,480,118.753,480,124L480,124z"/>
	<circle fill="#FFFFFF" cx="432.684" cy="123.341" r="8"/>
	<g>
		<path fill="#FFFFFF" d="M447.824,123.247c1.102-1.727,1.896-3.617,2.391-5.672l0.867,0.211c-0.289,0.98-0.602,1.893-0.938,2.736
			v8.525h-0.797v-6.762c-0.355,0.707-0.738,1.352-1.146,1.934C448.082,123.876,447.957,123.552,447.824,123.247z M450.801,123.353
			h8.543v1.84h-0.816v-1.09h-6.902v1.09h-0.82L450.801,123.353L450.801,123.353z M451.105,118.853h3.563
			c-0.168-0.355-0.352-0.703-0.551-1.043l0.797-0.352c0.262,0.457,0.498,0.922,0.709,1.395h3.592v0.75h-8.105L451.105,118.853
			L451.105,118.853z M451.973,125.087h6.18v0.75h-2.301v1.699c0,0.906-0.422,1.363-1.266,1.371
			c-0.375,0.008-0.867,0.004-1.477-0.012c-0.051-0.281-0.109-0.586-0.188-0.914c0.508,0.055,0.979,0.082,1.406,0.082
			c0.453,0,0.68-0.258,0.68-0.773v-1.453h-3.035L451.973,125.087L451.973,125.087z M452.078,120.294h5.895v2.613h-0.816v-0.316
			H452.9v0.316h-0.82L452.078,120.294L452.078,120.294z M457.152,120.997h-4.254v0.891h4.254V120.997z"/>
		<path fill="#FFFFFF" d="M465.473,128.907v-3.727h-3.406c-0.137,1.625-0.605,2.973-1.422,4.043
			c-0.199-0.258-0.434-0.527-0.688-0.809c0.508-0.719,0.852-1.516,1.031-2.391c0.172-0.844,0.258-2.039,0.258-3.586v-4.184h9.551
			v9.316c0,0.93-0.44,1.395-1.324,1.395c-0.539,0-1.145-0.012-1.813-0.035c-0.039-0.258-0.102-0.582-0.179-0.973
			c0.683,0.047,1.229,0.07,1.651,0.07c0.484,0,0.729-0.23,0.729-0.691v-2.156h-3.445v3.727L465.473,128.907L465.473,128.907z
			 M462.127,124.337h3.346v-2.191h-3.293C462.203,122.903,462.186,123.634,462.127,124.337z M462.18,119.122v2.18h3.293v-2.18
			H462.18z M469.855,119.122h-3.445v2.18h3.445V119.122z M466.41,124.337h3.445v-2.191h-3.445V124.337z"/>
	</g>
</g>
<g>
	<g>
		<g>
			<g>
				<g>
					<g>
						<defs>
							<rect id="SVGID_1_" x="497.5" y="114.5" width="18" height="18"/>
						</defs>
						<clipPath id="SVGID_2_">
							<use xlink:href="#SVGID_1_"  overflow="visible"/>
						</clipPath>
						<path clip-path="url(#SVGID_2_)" fill="#606060" d="M511.262,114.5h-13.188c-0.142,0-0.571-0.032-0.571,0.242v17.175
							c0,0.137,0.296,0.583,0.571,0.583h17.175c0.137,0,0.254-0.309,0.254-0.583V118.59L511.262,114.5L511.262,114.5z M499.5,117.49
							c0-0.138,1.045,0.01,1.319,0.01h8.931c0.137,0-0.25-0.284-0.25-0.01v2.061c0,0.138,0.525,0.949,0.25,0.949h-8.931
							c-0.142,0-1.319-0.674-1.319-0.949V117.49z M512.5,129.031c0,0.138,0.135,0.469-0.002,0.469h-11.68
							c-0.141,0-0.318-0.193-0.318-0.469v-6.183c0-0.137,0.182-0.349,0.318-0.349h11.68c0.137,0,0.002,0.074,0.002,0.349V129.031z
							 M511.398,124.085c0-0.137-0.141-0.137-0.141-0.137h-0.963c-0.137,0-0.137,0.137-0.137,0.137v0.962
							c0,0.138,0.137,0.138,0.137,0.138h0.963c0.141,0,0.141-0.138,0.141-0.138V124.085z"/>
					</g>
				</g>
			</g>
		</g>
	</g>
</g>
<g>
	<g>
		<g>
			<g>
				<g>
					<g>
						<defs>
							<rect id="SVGID_3_" x="497.5" y="154.5" width="18" height="19"/>
						</defs>
						<clipPath id="SVGID_4_">
							<use xlink:href="#SVGID_3_"  overflow="visible"/>
						</clipPath>
						<path clip-path="url(#SVGID_4_)" fill="#7C7C7C" d="M511.262,154.5h-13.188c-0.142,0-0.571,0.127-0.571,0.401v17.175
							c0,0.137,0.296,0.424,0.571,0.424h17.175c0.137,0,0.254-0.149,0.254-0.424v-13.327L511.262,154.5L511.262,154.5z
							 M499.5,157.649c0-0.138,1.045-0.149,1.319-0.149h8.931c0.137,0-0.25-0.125-0.25,0.149v2.061c0,0.138,0.525,0.79,0.25,0.79
							h-8.931c-0.142,0-1.319-0.515-1.319-0.79V157.649z M512.5,169.19c0,0.138,0.135,1.31-0.002,1.31h-11.68
							c-0.141,0-0.318-1.034-0.318-1.31v-6.183c0-0.137,0.182,0.492,0.318,0.492h11.68c0.137,0,0.002-0.767,0.002-0.492V169.19z
							 M511.398,164.244c0-0.137-0.141-0.137-0.141-0.137h-0.963c-0.137,0-0.137,0.137-0.137,0.137v0.962
							c0,0.138,0.137,0.138,0.137,0.138h0.963c0.141,0,0.141-0.138,0.141-0.138V164.244z"/>
					</g>
				</g>
			</g>
		</g>
	</g>
</g>
<g>
	<path fill="#606060" d="M533.534,114.341c-4.976,0-9,4.028-9,9c0,4.972,4.024,9,9,9c4.972,0,9-4.028,9-9
		C542.534,118.369,538.506,114.341,533.534,114.341L533.534,114.341z M537.351,125.884c0.354,0.354,0.354,0.926,0.001,1.274
		c-0.352,0.352-0.92,0.352-1.271-0.001l-2.543-2.543l-2.543,2.543c-0.354,0.352-0.928,0.352-1.274,0.001
		c-0.352-0.352-0.351-0.92,0.001-1.274l2.543-2.543l-2.543-2.543c-0.352-0.354-0.352-0.926-0.001-1.274
		c0.354-0.352,0.92-0.352,1.274,0.001l2.543,2.543l2.543-2.543c0.354-0.353,0.926-0.352,1.271-0.001
		c0.354,0.352,0.354,0.92-0.001,1.274l-2.543,2.543L537.351,125.884z"/>
</g>
<g>
	<path fill="#979797" d="M288.534,113.341c-5.524,0-10,4.476-10,10c0,5.524,4.476,10,10,10c5.524,0,10-4.476,10-10
		C298.534,117.817,294.059,113.341,288.534,113.341L288.534,113.341z M292.774,126.166c0.391,0.395,0.391,1.029,0.001,1.416
		c-0.391,0.391-1.021,0.391-1.415-0.001l-2.826-2.825l-2.826,2.825c-0.391,0.391-1.027,0.391-1.415,0.001
		c-0.391-0.391-0.39-1.021,0.001-1.416l2.826-2.825l-2.826-2.825c-0.391-0.395-0.391-1.029-0.001-1.416
		c0.391-0.391,1.021-0.391,1.415,0.001l2.826,2.825l2.826-2.825c0.394-0.392,1.027-0.391,1.415-0.001
		c0.391,0.391,0.391,1.021-0.001,1.416l-2.826,2.825L292.774,126.166z"/>
</g>
<g>
	<path fill="#848484" d="M288.534,152.341c-5.524,0-10,4.476-10,10c0,5.524,4.476,10,10,10c5.524,0,10-4.476,10-10
		C298.534,156.817,294.059,152.341,288.534,152.341L288.534,152.341z M292.774,165.166c0.391,0.395,0.391,1.029,0.001,1.416
		c-0.391,0.391-1.021,0.391-1.415-0.001l-2.826-2.825l-2.826,2.825c-0.391,0.391-1.027,0.391-1.415,0.001
		c-0.391-0.391-0.39-1.021,0.001-1.416l2.826-2.825l-2.826-2.825c-0.391-0.395-0.391-1.029-0.001-1.416
		c0.391-0.391,1.021-0.391,1.415,0.001l2.826,2.825l2.826-2.825c0.394-0.392,1.027-0.391,1.415-0.001
		c0.391,0.391,0.391,1.021-0.001,1.416l-2.826,2.825L292.774,165.166z"/>
</g>
<g>
	<path fill="#7C7C7C" d="M533.534,154.5c-4.976,0-9,4.028-9,9s4.024,9,9,9c4.972,0,9-4.028,9-9S538.506,154.5,533.534,154.5
		L533.534,154.5z M537.351,166.043c0.354,0.354,0.354,0.926,0.001,1.274c-0.352,0.352-0.92,0.352-1.271-0.001l-2.543-2.543
		l-2.543,2.543c-0.354,0.352-0.928,0.352-1.274,0.001c-0.352-0.352-0.351-0.92,0.001-1.274l2.543-2.543l-2.543-2.543
		c-0.352-0.354-0.352-0.926-0.001-1.274c0.354-0.352,0.92-0.352,1.274,0.001l2.543,2.543l2.543-2.543
		c0.354-0.353,0.926-0.352,1.271-0.001c0.354,0.352,0.354,0.92-0.001,1.274l-2.543,2.543L537.351,166.043z"/>
</g>
<path fill="#FFFFFF" stroke="#999999" stroke-miterlimit="10" d="M607,130c0,0.552-0.447,1-1,1h-12c-0.553,0-1-0.448-1-1v-12
	c0-0.552,0.447-1,1-1h12c0.553,0,1,0.448,1,1V130z"/>
<path fill="#FFFFFF" stroke="#12B9C8" stroke-miterlimit="10" d="M607,170c0,0.553-0.447,1-1,1h-12c-0.553,0-1-0.447-1-1v-12
	c0-0.553,0.447-1,1-1h12c0.553,0,1,0.447,1,1V170z"/>
<path fill="#12B9C8" d="M595.521,163.774c-0.387-0.321-0.965-0.321-1.283,0.065c-0.321,0.386-0.321,0.965,0.063,1.285l5.082,5.533
	c0.193,0.193,0.387,0.258,0.646,0.258c0.257,0,0.446-0.129,0.643-0.322l9.85-12.135c0.321-0.387,0.321-0.966-0.063-1.287
	c-0.387-0.321-0.965-0.321-1.287,0.064l-9.205,11.492L595.521,163.774z"/>
<path fill="#FFFFFF" stroke="#CCCCCC" stroke-miterlimit="10" d="M651,130c0,0.552-0.447,1-1,1h-12c-0.553,0-1-0.448-1-1v-12
	c0-0.552,0.447-1,1-1h12c0.553,0,1,0.448,1,1V130z"/>
<path fill="#FFFFFF" stroke="#CCCCCC" stroke-miterlimit="10" d="M651,170c0,0.553-0.447,1-1,1h-12c-0.553,0-1-0.447-1-1v-12
	c0-0.553,0.447-1,1-1h12c0.553,0,1,0.447,1,1V170z"/>
<path fill="#CCCCCC" d="M639.521,163.774c-0.387-0.321-0.965-0.321-1.283,0.065c-0.321,0.386-0.321,0.965,0.063,1.285l5.082,5.533
	c0.193,0.193,0.387,0.258,0.646,0.258c0.257,0,0.446-0.129,0.643-0.322l9.85-12.135c0.321-0.387,0.321-0.966-0.063-1.287
	c-0.387-0.321-0.965-0.321-1.287,0.064l-9.205,11.492L639.521,163.774z"/>
<g>
	<path fill="#CCCCCC" d="M253.266,122.832l-4.906-5.409c-0.503-0.504-0.377-1.259,0.126-1.762c0.503-0.503,1.259-0.377,1.761,0.126
		l4.781,5.284l4.781-5.284c0.503-0.503,1.258-0.503,1.762-0.126c0.503,0.377,0.503,1.258,0.125,1.762l-5.158,5.409l4.907,5.41
		c0.503,0.503,0.377,1.258-0.126,1.762c-0.503,0.503-1.258,0.377-1.762-0.126l-4.654-5.158l-4.781,5.284
		c-0.504,0.503-1.258,0.503-1.762,0.126c-0.503-0.504-0.503-1.259-0.125-1.762L253.266,122.832L253.266,122.832z"/>
</g>
<g>
	<path fill="#999999" d="M253.266,161.3l-4.906-5.409c-0.503-0.504-0.377-1.259,0.126-1.762c0.503-0.503,1.259-0.377,1.761,0.126
		l4.781,5.284l4.781-5.284c0.503-0.503,1.258-0.503,1.762-0.126c0.503,0.377,0.503,1.258,0.125,1.762l-5.158,5.409l4.907,5.41
		c0.503,0.503,0.377,1.258-0.126,1.762c-0.503,0.503-1.258,0.377-1.762-0.126l-4.654-5.158l-4.781,5.284
		c-0.504,0.503-1.258,0.503-1.762,0.126c-0.503-0.504-0.503-1.259-0.125-1.762L253.266,161.3L253.266,161.3z"/>
</g>
<g>
	<path fill="#FFFFFF" d="M694.91,130c-3.584,0-6.5-2.916-6.5-6.5s2.916-6.5,6.5-6.5s6.5,2.916,6.5,6.5S698.494,130,694.91,130z"/>
	<path fill="#999999" d="M694.91,117.5c3.309,0,6,2.691,6,6s-2.691,6-6,6c-3.313,0-6-2.691-6-6S691.602,117.5,694.91,117.5
		 M694.91,116.5c-3.866,0-7,3.134-7,7s3.134,7,7,7s7-3.134,7-7S698.776,116.5,694.91,116.5L694.91,116.5z"/>
</g>
<g>
	<path fill="#FFFFFF" d="M694.91,169.5c-2.757,0-5-2.243-5-5s2.243-5,5-5s5,2.243,5,5S697.667,169.5,694.91,169.5z"/>
	<path fill="#28C1CE" d="M694.91,161.5c1.653,0,3,1.346,3,3s-1.347,3-3,3c-1.654,0-3-1.346-3-3S693.256,161.5,694.91,161.5
		 M694.91,157.5c-3.866,0-7,3.134-7,7s3.134,7,7,7s7-3.134,7-7S698.776,157.5,694.91,157.5L694.91,157.5z"/>
</g>
<g>
	<g>
		<g>
			<g>
				<g>
					<g>
						<defs>
							<rect id="SVGID_5_" x="12.84" y="115.87" width="23.538" height="15"/>
						</defs>
						<clipPath id="SVGID_6_">
							<use xlink:href="#SVGID_5_"  overflow="visible"/>
						</clipPath>
						<path clip-path="url(#SVGID_6_)" fill="#606060" d="M26.85,121.125c-0.281-0.281-0.656-0.562-1.029-0.655
							c-0.375-0.188-0.843-0.281-1.216-0.281c-0.374,0-0.842,0.094-1.216,0.281s-0.749,0.374-1.029,0.655
							c-0.281,0.28-0.561,0.654-0.748,1.029c-0.094,0.374-0.187,0.841-0.187,1.216c0,0.374,0.093,0.841,0.28,1.216
							c0.188,0.375,0.374,0.748,0.655,1.029c0.281,0.28,0.655,0.561,1.029,0.654c0.374,0.187,0.842,0.28,1.216,0.28
							s0.842-0.093,1.216-0.28c0.373-0.187,0.748-0.375,1.029-0.654c0.28-0.281,0.561-0.655,0.655-1.029
							c0.187-0.375,0.28-0.842,0.28-1.216c0-0.375-0.093-0.842-0.28-1.216C27.411,121.779,27.13,121.404,26.85,121.125
							L26.85,121.125z"/>
					</g>
				</g>
			</g>
		</g>
		<g>
			<g>
				<g>
					<g>
						<defs>
							<rect id="SVGID_7_" x="12.84" y="115.87" width="23.538" height="15"/>
						</defs>
						<clipPath id="SVGID_8_">
							<use xlink:href="#SVGID_7_"  overflow="visible"/>
						</clipPath>
						<path clip-path="url(#SVGID_8_)" fill="#606060" d="M36.203,122.62c0,0,0-0.28-2.806-2.993
							c-4.022-3.46-7.669-4.022-10.289-3.647c-2.713,0.374-4.677,1.777-4.864,1.871c-1.403,0.654-3.367,2.619-4.022,3.274
							c-0.654,0.654-1.028,0.935-1.216,1.402c-0.468,1.029,0.188,2.058,0.188,2.058l1.777,1.777c0,0,4.022,4.489,9.26,4.489
							s7.764-2.245,8.792-3.086c1.029-0.842,2.339-2.339,2.994-3.181C36.67,123.556,36.203,122.62,36.203,122.62L36.203,122.62z
							 M24.604,128.794c-2.993,0-5.425-2.432-5.425-5.425c0-2.993,2.432-5.425,5.425-5.425s5.425,2.433,5.425,5.425
							C30.029,126.362,27.598,128.794,24.604,128.794L24.604,128.794z"/>
					</g>
				</g>
			</g>
		</g>
	</g>
</g>
<g>
	<g>
		<g>
			<g>
				<g>
					<g>
						<defs>
							<rect id="SVGID_9_" x="12.84" y="156.959" width="23.538" height="15"/>
						</defs>
						<clipPath id="SVGID_10_">
							<use xlink:href="#SVGID_9_"  overflow="visible"/>
						</clipPath>
						<path clip-path="url(#SVGID_10_)" fill="#29C6D4" d="M26.85,162.213c-0.281-0.281-0.656-0.562-1.029-0.654
							c-0.375-0.188-0.843-0.281-1.216-0.281c-0.374,0-0.842,0.094-1.216,0.281c-0.374,0.186-0.749,0.373-1.029,0.654
							c-0.281,0.279-0.561,0.654-0.748,1.029c-0.094,0.373-0.187,0.841-0.187,1.215s0.093,0.842,0.28,1.217
							c0.188,0.374,0.374,0.748,0.655,1.029c0.281,0.279,0.655,0.561,1.029,0.654c0.374,0.187,0.842,0.279,1.216,0.279
							s0.842-0.093,1.216-0.279c0.373-0.188,0.748-0.375,1.029-0.654c0.28-0.281,0.561-0.655,0.655-1.029
							c0.187-0.375,0.28-0.843,0.28-1.217s-0.093-0.842-0.28-1.215C27.411,162.867,27.13,162.492,26.85,162.213L26.85,162.213z"/>
					</g>
				</g>
			</g>
		</g>
		<g>
			<g>
				<g>
					<g>
						<defs>
							<rect id="SVGID_11_" x="12.84" y="156.959" width="23.538" height="15"/>
						</defs>
						<clipPath id="SVGID_12_">
							<use xlink:href="#SVGID_11_"  overflow="visible"/>
						</clipPath>
						<path clip-path="url(#SVGID_12_)" fill="#29C6D4" d="M36.203,163.709c0,0,0-0.28-2.806-2.993
							c-4.022-3.46-7.669-4.022-10.289-3.647c-2.713,0.373-4.677,1.777-4.864,1.871c-1.403,0.654-3.367,2.619-4.022,3.273
							c-0.654,0.654-1.028,0.935-1.216,1.402c-0.468,1.029,0.188,2.059,0.188,2.059l1.777,1.777c0,0,4.022,4.488,9.26,4.488
							s7.764-2.244,8.792-3.086c1.029-0.842,2.339-2.339,2.994-3.18C36.67,164.645,36.203,163.709,36.203,163.709L36.203,163.709z
							 M24.604,169.883c-2.993,0-5.425-2.432-5.425-5.426c0-2.992,2.432-5.425,5.425-5.425s5.425,2.433,5.425,5.425
							C30.029,167.451,27.598,169.883,24.604,169.883L24.604,169.883z"/>
					</g>
				</g>
			</g>
		</g>
	</g>
</g>
<g>
	<path fill="#29C6D4" d="M125.197,169.253c0.129,0.13,0.3,0.194,0.469,0.194c0.17,0,0.34-0.064,0.47-0.194l8.648-8.648
		c0.259-0.259,0.259-0.68,0-0.938c-0.259-0.261-0.68-0.261-0.939,0l-8.648,8.647C124.938,168.572,124.938,168.994,125.197,169.253z"
		/>
	<path fill="#29C6D4" d="M130.478,167.627l-3.244,3.243c-1.005,1.007-2.645,1.008-3.655,0.001c-1.007-1.009-1.007-2.648,0.001-3.655
		l3.243-3.243c0.258-0.26,0.258-0.681,0-0.94c-0.259-0.258-0.68-0.258-0.939,0l-3.242,3.244c-1.526,1.524-1.526,4.007,0,5.532
		c0.762,0.763,1.764,1.144,2.765,1.144c1.002,0,2.004-0.381,2.767-1.145l3.243-3.243c0.259-0.258,0.258-0.679-0.001-0.938
		C131.158,167.367,130.736,167.368,130.478,167.627z"/>
	<path fill="#29C6D4" d="M137.341,157.109c-1.526-1.524-4.008-1.526-5.534,0.001l-3.242,3.243c-0.259,0.259-0.258,0.68,0.001,0.939
		c0.257,0.259,0.679,0.258,0.938-0.002l3.242-3.242c1.01-1.01,2.651-1.007,3.655,0c0.489,0.487,0.757,1.137,0.757,1.827
		c0,0.691-0.269,1.339-0.756,1.827l-3.244,3.243c-0.259,0.259-0.26,0.679-0.001,0.938c0.125,0.126,0.293,0.195,0.47,0.195
		c0.17,0,0.339-0.064,0.469-0.194l3.244-3.242C138.865,161.117,138.865,158.635,137.341,157.109z"/>
</g>
<g>
	<path fill="#606060" d="M125.197,127.664c0.129,0.13,0.3,0.194,0.469,0.194c0.17,0,0.34-0.064,0.47-0.194l8.648-8.648
		c0.259-0.259,0.259-0.68,0-0.938c-0.259-0.261-0.68-0.261-0.939,0l-8.648,8.647C124.938,126.983,124.938,127.405,125.197,127.664z"
		/>
	<path fill="#606060" d="M130.478,126.038l-3.244,3.243c-1.005,1.007-2.645,1.008-3.655,0.001c-1.007-1.009-1.007-2.648,0.001-3.655
		l3.243-3.243c0.258-0.26,0.258-0.681,0-0.94c-0.259-0.258-0.68-0.258-0.939,0l-3.242,3.244c-1.526,1.524-1.526,4.007,0,5.532
		c0.762,0.763,1.764,1.144,2.765,1.144c1.002,0,2.004-0.381,2.767-1.145l3.243-3.243c0.259-0.258,0.258-0.679-0.001-0.938
		C131.158,125.778,130.736,125.779,130.478,126.038z"/>
	<path fill="#606060" d="M137.341,115.521c-1.526-1.524-4.008-1.526-5.534,0.001l-3.242,3.243c-0.259,0.259-0.258,0.68,0.001,0.939
		c0.257,0.259,0.679,0.258,0.938-0.002l3.242-3.242c1.01-1.01,2.651-1.007,3.655,0c0.489,0.487,0.757,1.137,0.757,1.827
		c0,0.691-0.269,1.339-0.756,1.827l-3.244,3.243c-0.259,0.259-0.26,0.679-0.001,0.938c0.125,0.126,0.293,0.195,0.47,0.195
		c0.17,0,0.339-0.064,0.469-0.194l3.244-3.242C138.865,119.528,138.865,117.046,137.341,115.521z"/>
</g>
<g>
	<g>
		<path d="M333.62,125.168c-0.308,0-0.522-0.048-0.646-0.147c-0.125-0.098-0.188-0.28-0.188-0.551c0-0.106,0.02-0.264,0.059-0.474
			c0.038-0.209,0.082-0.396,0.129-0.559l0.592-2.031c0.057-0.186,0.098-0.391,0.117-0.613c0.022-0.225,0.034-0.381,0.034-0.469
			c0-0.428-0.156-0.776-0.464-1.045c-0.311-0.266-0.75-0.4-1.322-0.4c-0.315,0-0.652,0.054-1.006,0.164
			c-0.355,0.109-0.728,0.241-1.116,0.395l-0.157,0.627c0.116-0.041,0.253-0.085,0.414-0.132c0.161-0.046,0.318-0.07,0.471-0.07
			c0.313,0,0.524,0.051,0.634,0.153c0.11,0.103,0.166,0.284,0.166,0.545c0,0.144-0.018,0.304-0.054,0.479
			c-0.036,0.173-0.08,0.359-0.134,0.554l-0.594,2.039c-0.051,0.215-0.09,0.407-0.114,0.576c-0.023,0.169-0.036,0.337-0.036,0.5
			c0,0.418,0.16,0.765,0.477,1.036c0.319,0.273,0.766,0.409,1.341,0.409c0.373,0,0.701-0.048,0.985-0.143
			c0.283-0.096,0.66-0.234,1.132-0.415l0.161-0.63c-0.083,0.039-0.214,0.08-0.396,0.129
			C333.925,125.145,333.762,125.168,333.62,125.168z"/>
		<path d="M332.247,117.346c0.277,0.249,0.61,0.374,0.998,0.374c0.389,0,0.72-0.125,0.997-0.374
			c0.273-0.249,0.412-0.549,0.412-0.903s-0.139-0.656-0.412-0.908c-0.276-0.251-0.607-0.376-0.997-0.376
			c-0.387,0-0.72,0.125-0.998,0.376c-0.278,0.252-0.417,0.555-0.417,0.908C331.83,116.797,331.968,117.097,332.247,117.346z"/>
	</g>
	<circle fill="#ADADAD" cx="332.153" cy="120.656" r="6"/>
	<g>
		<path fill="#FFFFFF" d="M333.033,123.363c-0.185,0-0.313-0.028-0.387-0.088c-0.075-0.059-0.113-0.168-0.113-0.331
			c0-0.063,0.012-0.158,0.035-0.284s0.05-0.237,0.078-0.335l0.355-1.219c0.035-0.111,0.059-0.234,0.07-0.368
			c0.013-0.135,0.021-0.229,0.021-0.281c0-0.257-0.094-0.466-0.278-0.627c-0.187-0.159-0.451-0.24-0.793-0.24
			c-0.188,0-0.391,0.032-0.604,0.099c-0.213,0.065-0.437,0.145-0.669,0.237l-0.095,0.376c0.069-0.024,0.151-0.051,0.248-0.079
			c0.097-0.027,0.191-0.042,0.283-0.042c0.188,0,0.314,0.03,0.381,0.092c0.065,0.062,0.1,0.17,0.1,0.327
			c0,0.086-0.011,0.183-0.032,0.287c-0.022,0.104-0.049,0.215-0.081,0.332l-0.355,1.224c-0.031,0.129-0.055,0.244-0.069,0.346
			s-0.021,0.202-0.021,0.3c0,0.251,0.096,0.459,0.287,0.621c0.191,0.164,0.459,0.246,0.804,0.246c0.225,0,0.421-0.029,0.591-0.086
			c0.17-0.058,0.396-0.141,0.679-0.249l0.097-0.378c-0.05,0.023-0.128,0.048-0.237,0.077
			C333.216,123.349,333.119,123.363,333.033,123.363z"/>
		<path fill="#FFFFFF" d="M332.209,118.669c0.166,0.149,0.366,0.225,0.598,0.225c0.234,0,0.432-0.075,0.598-0.225
			c0.164-0.149,0.247-0.329,0.247-0.542c0-0.212-0.083-0.394-0.247-0.545c-0.166-0.15-0.364-0.226-0.598-0.226
			c-0.232,0-0.432,0.075-0.598,0.226c-0.167,0.151-0.251,0.333-0.251,0.545C331.958,118.34,332.042,118.52,332.209,118.669z"/>
	</g>
</g>
<g>
	<g>
		<path d="M332.967,168.013c-0.308,0-0.522-0.048-0.646-0.147c-0.125-0.098-0.188-0.279-0.188-0.551c0-0.106,0.02-0.264,0.059-0.475
			c0.038-0.209,0.082-0.395,0.129-0.559l0.592-2.031c0.057-0.186,0.098-0.391,0.117-0.613c0.022-0.225,0.034-0.381,0.034-0.469
			c0-0.428-0.156-0.775-0.464-1.045c-0.311-0.266-0.75-0.4-1.322-0.4c-0.315,0-0.652,0.055-1.006,0.164
			c-0.355,0.109-0.728,0.242-1.116,0.396L329,162.91c0.116-0.041,0.253-0.086,0.414-0.133c0.161-0.046,0.318-0.07,0.471-0.07
			c0.313,0,0.524,0.052,0.634,0.154s0.166,0.283,0.166,0.545c0,0.143-0.018,0.303-0.054,0.479c-0.036,0.172-0.08,0.358-0.134,0.553
			l-0.594,2.039c-0.051,0.215-0.09,0.408-0.114,0.576c-0.023,0.17-0.036,0.338-0.036,0.5c0,0.418,0.16,0.766,0.477,1.036
			c0.319,0.272,0.766,0.409,1.341,0.409c0.373,0,0.701-0.049,0.985-0.143c0.283-0.096,0.66-0.234,1.132-0.416l0.161-0.629
			c-0.083,0.039-0.214,0.08-0.396,0.129C333.272,167.989,333.109,168.013,332.967,168.013z"/>
		<path d="M331.594,160.189c0.277,0.25,0.61,0.375,0.998,0.375c0.389,0,0.72-0.125,0.997-0.375c0.273-0.248,0.412-0.549,0.412-0.902
			s-0.139-0.656-0.412-0.908c-0.276-0.252-0.607-0.377-0.997-0.377c-0.387,0-0.72,0.125-0.998,0.377
			c-0.278,0.252-0.417,0.555-0.417,0.908S331.315,159.941,331.594,160.189z"/>
	</g>
	<circle fill="#29C5D3" cx="331.5" cy="163.5" r="6"/>
	<g>
		<path fill="#FFFFFF" d="M332.38,166.207c-0.185,0-0.313-0.028-0.387-0.088c-0.075-0.059-0.113-0.168-0.113-0.331
			c0-0.063,0.012-0.158,0.035-0.284s0.05-0.237,0.078-0.335l0.355-1.219c0.035-0.111,0.059-0.234,0.07-0.368
			c0.013-0.135,0.021-0.229,0.021-0.281c0-0.257-0.094-0.466-0.278-0.627c-0.187-0.159-0.451-0.24-0.793-0.24
			c-0.188,0-0.391,0.032-0.604,0.099c-0.213,0.065-0.437,0.145-0.669,0.237L330,163.146c0.069-0.024,0.151-0.051,0.248-0.079
			c0.097-0.027,0.191-0.042,0.283-0.042c0.188,0,0.314,0.03,0.381,0.092c0.065,0.062,0.1,0.17,0.1,0.327
			c0,0.086-0.011,0.183-0.032,0.287c-0.022,0.104-0.049,0.215-0.081,0.332l-0.355,1.224c-0.031,0.129-0.055,0.244-0.069,0.346
			c-0.014,0.102-0.021,0.202-0.021,0.3c0,0.251,0.096,0.459,0.287,0.621c0.191,0.164,0.459,0.246,0.804,0.246
			c0.225,0,0.421-0.029,0.591-0.086c0.17-0.058,0.396-0.141,0.679-0.249l0.097-0.378c-0.05,0.023-0.128,0.048-0.237,0.077
			C332.563,166.193,332.466,166.207,332.38,166.207z"/>
		<path fill="#FFFFFF" d="M331.557,161.514c0.166,0.149,0.366,0.225,0.598,0.225c0.234,0,0.432-0.075,0.598-0.225
			c0.164-0.149,0.247-0.329,0.247-0.542c0-0.212-0.083-0.394-0.247-0.545c-0.166-0.15-0.364-0.226-0.598-0.226
			c-0.232,0-0.432,0.075-0.598,0.226c-0.167,0.151-0.251,0.333-0.251,0.545C331.306,161.185,331.39,161.364,331.557,161.514z"/>
	</g>
</g>
<g>
	<path fill="#29C6D4" d="M370.646,120.5h-0.899c-0.385-2.89-2.825-5.138-5.779-5.138c-1.156,0-2.184,0.321-3.083,0.899
		c-0.192,0.128-0.321,0.321-0.321,0.514c0,0.321,0.258,0.578,0.578,0.578c0.129,0,0.258-0.064,0.321-0.129
		c0.706-0.449,1.542-0.706,2.44-0.706c2.312,0,4.238,1.733,4.624,3.981H367.5c-0.129,0-0.193,0.129-0.193,0.192
		c0,0.064,0,0.064,0.064,0.129l1.541,2.697c0.064,0.064,0.129,0.128,0.193,0.128c0.063,0,0.128-0.063,0.192-0.128l0,0l1.541-2.697
		c0-0.064,0.064-0.064,0.064-0.129C370.839,120.629,370.774,120.5,370.646,120.5L370.646,120.5L370.646,120.5L370.646,120.5
		L370.646,120.5z"/>
	<path fill="#29C6D4" d="M367.179,124.995c-0.129,0-0.321,0.064-0.386,0.193l0,0c-0.771,0.577-1.733,0.963-2.825,0.963
		c-2.568,0-4.688-2.119-4.688-4.752c0-0.064,0-0.064,0-0.129h1.028c0.128,0,0.191-0.128,0.191-0.192s0-0.064-0.063-0.129
		l-0.771-1.477l-0.771-1.349c-0.063-0.064-0.128-0.129-0.191-0.129c-0.064,0-0.129,0.064-0.193,0.129l0,0l-1.541,2.697
		c0,0.064-0.064,0.064-0.064,0.128c0,0.129,0.129,0.193,0.192,0.193h0.899c0,0.063,0,0.063,0,0.128c0,3.275,2.633,5.973,5.844,5.973
		c1.349,0,2.569-0.449,3.532-1.22c0,0,0,0,0.064-0.064l0,0l0,0c0.128-0.129,0.192-0.257,0.192-0.45
		C367.757,125.252,367.5,124.995,367.179,124.995L367.179,124.995L367.179,124.995L367.179,124.995z"/>
</g>
<g>
	<circle fill="#29C6D4" cx="27" cy="203.374" r="12"/>
	<rect x="21" y="202.874" fill="#FFFFFF" width="12" height="1"/>
	<rect x="26.5" y="197.374" fill="#FFFFFF" width="1" height="12"/>
</g>
<g>
	<circle fill="#12B9C8" cx="27" cy="240.5" r="12"/>
	<rect x="21" y="240" fill="#FFFFFF" width="12" height="1"/>
	<rect x="26.5" y="234.5" fill="#FFFFFF" width="1" height="12"/>
</g>
<path fill="#29C6D4" d="M223.999,45.113L223.999,45.113c-0.146,0-0.277-0.07-0.369-0.182l-3.982-4.831
	c-0.088-0.104-0.141-0.244-0.141-0.399c0-0.321,0.229-0.582,0.508-0.582c0.146,0,0.275,0.069,0.367,0.183l3.617,4.384l3.617-4.384
	c0.094-0.113,0.223-0.182,0.367-0.182c0.137,0,0.26,0.06,0.352,0.158c0.203,0.221,0.211,0.59,0.018,0.822l-3.984,4.831
	C224.274,45.042,224.144,45.113,223.999,45.113L223.999,45.113L223.999,45.113z"/>
<path fill="#29C6D4" d="M64.915,201.689h14.456l-6.856-5.029l0.771,3.095h-8.373L64.915,201.689z M78.617,205.631H64.161
	l6.668,5.029l-0.771-3.095h8.561L78.617,205.631z"/>
<path fill="#EE3939" d="M100.781,207.021c-0.212,0.213-0.587,0.213-0.8,0l-2.561-2.561l-2.561,2.561c-0.213,0.213-0.588,0.213-0.8,0
	s-0.212-0.588,0-0.8l2.561-2.561l-2.561-2.561c-0.212-0.212-0.212-0.588,0-0.8c0.212-0.213,0.587-0.213,0.8,0l2.561,2.561
	l2.561-2.561c0.213-0.213,0.588-0.213,0.8,0c0.212,0.212,0.212,0.588,0,0.8l-2.561,2.561l2.561,2.561
	C101.048,206.433,101.048,206.806,100.781,207.021 M97.421,195.66c-4.428,0-8,3.573-8,8c0,4.427,3.572,8,8,8c4.428,0,8-3.573,8-8
	C105.421,199.233,101.849,195.66,97.421,195.66"/>
<g>
	<path fill-rule="evenodd" clip-rule="evenodd" fill="#9A9A9A" d="M140.274,199.993h-0.364v-1.451c0-2.507-1.936-4.415-4.323-4.415
		c-2.389,0-4.324,1.908-4.324,4.415v1.451h-0.363c-0.811,0-1.467,0.656-1.467,1.464v6.207c0,0.808,0.656,1.463,1.467,1.463h9.375
		c0.811,0,1.467-0.655,1.467-1.463v-6.207C141.741,200.649,141.085,199.993,140.274,199.993L140.274,199.993z M132.5,198.5
		c0-1.705,1.381-3.088,3.087-3.088s3.087,1.383,3.087,3.088v1.494H132.5V198.5L132.5,198.5z M136.204,204.518v1.629
		c0,0.342-0.275,0.618-0.617,0.618c-0.343,0-0.618-0.276-0.618-0.618v-1.629c-0.368-0.213-0.618-0.611-0.618-1.068
		c0-0.683,0.555-1.234,1.236-1.234c0.681,0,1.235,0.553,1.235,1.234C136.822,203.908,136.574,204.305,136.204,204.518
		L136.204,204.518z"/>
</g>
</svg>
