<?xml version="1.0" encoding="utf-8"?>
<!-- Generator: Adobe Illustrator 16.0.0, SVG Export Plug-In . SVG Version: 6.00 Build 0)  -->
<!DOCTYPE svg PUBLIC "-//W3C//DTD SVG 1.1//EN" "http://www.w3.org/Graphics/SVG/1.1/DTD/svg11.dtd">
<svg version="1.1" id="图层_1" xmlns="http://www.w3.org/2000/svg" xmlns:xlink="http://www.w3.org/1999/xlink" x="0px" y="0px"
	 width="16px" height="12px" viewBox="0 0 16 12" enable-background="new 0 0 16 12" xml:space="preserve">
<path fill="#323232" d="M6.009,9.473L6.009,9.473c-0.146,0-0.277-0.07-0.369-0.182L1.657,4.465C1.569,4.362,1.517,4.221,1.517,4.066
	c0-0.321,0.229-0.582,0.508-0.582c0.146,0,0.275,0.069,0.367,0.183l3.617,4.379l3.612-4.379c0.094-0.113,0.223-0.182,0.367-0.182
	c0.137,0,0.26,0.06,0.352,0.158c0.203,0.221,0.211,0.59,0.018,0.822L6.378,9.291C6.284,9.402,6.153,9.473,6.009,9.473L6.009,9.473
	L6.009,9.473z M6.009,9.473"/>
</svg>
