<?xml version="1.0" encoding="utf-8"?>
<!-- Generator: Adobe Illustrator 16.0.0, SVG Export Plug-In . SVG Version: 6.00 Build 0)  -->
<!DOCTYPE svg PUBLIC "-//W3C//DTD SVG 1.1//EN" "http://www.w3.org/Graphics/SVG/1.1/DTD/svg11.dtd">
<svg version="1.1" id="图层_1" xmlns="http://www.w3.org/2000/svg" xmlns:xlink="http://www.w3.org/1999/xlink" x="0px" y="0px"
	 width="118.47px" height="20px" viewBox="0 0 118.47 20" enable-background="new 0 0 118.47 20" xml:space="preserve">
<g>
	<path fill-rule="evenodd" clip-rule="evenodd" fill="#29C6D4" d="M113.599,5.583c0,0.188-0.146,0.334-0.334,0.334h-1v9.875
		c0,1.146-0.75,2.125-1.666,2.125h-8.667c-0.918,0-1.666-0.937-1.666-2.083V5.917h-1.001c-0.188,0-0.333-0.146-0.333-0.334V4.917
		c0-0.187,0.145-0.333,0.333-0.333h3.219l0.728-1.739c0.209-0.51,0.836-0.927,1.387-0.927h3.334c0.553,0,1.178,0.417,1.385,0.927
		l0.729,1.739h3.219c0.188,0,0.334,0.146,0.334,0.333V5.583L113.599,5.583L113.599,5.583z M110.931,5.917h-9.333v9.875
		c0,0.501,0.281,0.792,0.334,0.792h8.667c0.052,0,0.332-0.291,0.332-0.792V5.917L110.931,5.917z M104.265,14.25
		c0,0.188-0.146,0.334-0.333,0.334h-0.667c-0.188,0-0.333-0.146-0.333-0.334v-6c0-0.188,0.145-0.333,0.333-0.333h0.667
		c0.187,0,0.333,0.146,0.333,0.333V14.25L104.265,14.25z M108.598,4.583l-0.5-1.218c-0.031-0.042-0.124-0.104-0.177-0.115h-3.302
		c-0.063,0.01-0.146,0.073-0.178,0.115l-0.51,1.218H108.598L108.598,4.583z M106.932,14.25c0,0.188-0.146,0.334-0.334,0.334h-0.666
		c-0.188,0-0.334-0.146-0.334-0.334v-6c0-0.188,0.146-0.333,0.334-0.333h0.666c0.188,0,0.334,0.146,0.334,0.333V14.25L106.932,14.25
		z M109.598,14.25c0,0.188-0.146,0.334-0.333,0.334h-0.667c-0.188,0-0.333-0.146-0.333-0.334v-6c0-0.188,0.146-0.333,0.333-0.333
		h0.667c0.188,0,0.333,0.146,0.333,0.333V14.25L109.598,14.25z"/>
</g>
<g>
	<g>
		<path fill="#29C6D4" d="M66.296,14.585v3.332h3.333l9.83-9.829l-3.333-3.333L66.296,14.585z M82.035,5.51
			c0.166-0.166,0.26-0.392,0.26-0.626c0-0.235-0.094-0.461-0.26-0.627l-2.079-2.08c-0.167-0.166-0.392-0.26-0.627-0.26
			s-0.46,0.094-0.626,0.26l-1.627,1.627l3.333,3.333L82.035,5.51z M82.035,5.51"/>
	</g>
</g>
<g>
	<path fill="#29C6D4" d="M18.42,13.067c0,0.41-0.273,0.686-0.822,0.686H4.994v-2.466l-3.698,3.698l3.698,3.699V16.22h14.248
		c0.822,0,1.507-0.686,1.507-1.508v-6.85l-2.329,2.329V13.067z"/>
	<path fill="#29C6D4" d="M4.174,6.767c0-0.548,0.274-0.822,0.821-0.822h12.604v2.602l3.699-3.699l-3.699-3.699v2.466H3.351
		c-0.822,0-1.507,0.686-1.507,1.507v6.849l2.329-2.329V6.767z"/>
</g>
<g>
	<g>
		<defs>
			<polyline id="SVGID_1_" points="45.383,17.205 36.232,9.641 45.383,1.709 			"/>
		</defs>
		<clipPath id="SVGID_2_">
			<use xlink:href="#SVGID_1_"  overflow="visible"/>
		</clipPath>
		<g clip-path="url(#SVGID_2_)">
			<defs>
				<rect id="SVGID_3_" x="-1207.08" y="-1012.187" width="1882.616" height="1527.011"/>
			</defs>
			<clipPath id="SVGID_4_">
				<use xlink:href="#SVGID_3_"  overflow="visible"/>
			</clipPath>
			<polyline clip-path="url(#SVGID_4_)" fill="#FFFFFF" points="45.383,17.205 36.232,9.641 45.383,1.709 			"/>
		</g>
	</g>
	<polyline fill-rule="evenodd" clip-rule="evenodd" fill="none" points="35.802,9.146 35.22,9.652 35.815,10.144 44.967,17.709 
		44.73,17.205 	"/>
	<path fill-rule="evenodd" clip-rule="evenodd" fill="none" d="M44.73,1.709"/>
	<polyline fill-rule="evenodd" clip-rule="evenodd" fill="none" points="46.037,17.205 46.037,16.897 45.8,16.702 36.648,9.136 
		36.66,10.135 45.812,2.204 46.037,2.008 46.037,1.709 	"/>
	<g>
		<defs>
			<polyline id="SVGID_5_" points="45.383,17.205 36.232,9.641 45.383,1.709 			"/>
		</defs>
		<clipPath id="SVGID_6_">
			<use xlink:href="#SVGID_5_"  overflow="visible"/>
		</clipPath>
		<g clip-path="url(#SVGID_6_)">
			<defs>
				<rect id="SVGID_7_" x="-1207.08" y="-1012.187" width="1882.616" height="1527.011"/>
			</defs>
			<clipPath id="SVGID_8_">
				<use xlink:href="#SVGID_7_"  overflow="visible"/>
			</clipPath>
			<polyline clip-path="url(#SVGID_8_)" fill="none" stroke="#CCCCCC" stroke-width="2.6147" stroke-miterlimit="10" points="
				45.383,17.205 36.232,9.641 45.383,1.709 			"/>
		</g>
	</g>
</g>
</svg>
